<svg xmlns="http://www.w3.org/2000/svg" width="24" height="24" viewBox="0 0 24 24"><defs><style>.a{fill:none;}.b{fill:#666;}</style></defs><g transform="translate(-29.172 -170)"><rect class="a" width="24" height="24" transform="translate(29.172 170)"/><g transform="translate(33.172 174)"><path class="b" d="M15.567.388a1.331,1.331,0,0,0-1.882,0L7.979,6.112,2.274.392A1.331,1.331,0,0,0,.388,2.27L6.1,8,.388,13.726A1.331,1.331,0,1,0,2.274,15.6L7.979,9.884l5.706,5.724a1.331,1.331,0,1,0,1.886-1.878L9.858,8,15.567,2.27A1.328,1.328,0,0,0,15.567.388Z" transform="translate(0 0)"/></g></g></svg>